<svg width="16" height="15" viewBox="0 0 16 15" fill="none" xmlns="http://www.w3.org/2000/svg">
<path fill-rule="evenodd" clip-rule="evenodd" d="M13.2968 8.95583C13.5125 8.15063 13.5422 7.33942 13.4121 6.56786C13.2379 7.12659 12.927 7.60926 12.5262 7.98812L12.5257 7.99216C12.2257 8.28762 11.872 8.52385 11.4832 8.68788C11.0464 8.87216 10.5752 8.96105 10.1012 8.9486C9.62724 8.93615 9.16139 8.82264 8.73481 8.61568C8.30823 8.40871 7.93075 8.11305 7.62762 7.74847C7.32449 7.38389 7.1027 6.95879 6.97707 6.5016C6.85143 6.04441 6.82486 5.56567 6.89913 5.09739C6.9734 4.6291 7.14679 4.18207 7.40771 3.78619C7.65109 3.41693 7.96538 3.10011 8.332 2.85393C8.7995 2.52724 9.34909 2.32132 9.92862 2.26723C9.73176 2.18982 9.5285 2.12269 9.31932 2.06664C6.31857 1.26259 3.23418 3.04336 2.43013 6.04411C1.62608 9.04486 3.40686 12.1293 6.4076 12.9333C9.40835 13.7373 12.4927 11.9566 13.2968 8.95583ZM12.1038 9.49983C11.1567 11.5142 8.87585 12.6241 6.65025 12.0277C4.14963 11.3577 2.66564 8.78738 3.33568 6.28675C3.79841 4.55984 5.16742 3.31779 6.79388 2.93519C6.71685 3.03261 6.64392 3.13349 6.57532 3.23757C6.2363 3.75195 6.01101 4.33278 5.91451 4.94123C5.81802 5.54968 5.85254 6.17172 6.01577 6.76576C6.17901 7.35979 6.46719 7.91213 6.86105 8.38583C7.25491 8.85954 7.74537 9.24369 8.29964 9.51261C8.8539 9.78152 9.45919 9.929 10.075 9.94518C10.6909 9.96136 11.3031 9.84586 11.8707 9.60642C11.9495 9.57316 12.0273 9.5376 12.1038 9.49983ZM12.4855 4.03787L12.2397 3.28126L11.9939 4.03787L11.1983 4.03787L11.8419 4.50548L11.5961 5.26209L12.2397 4.79448L12.8833 5.26209L12.6375 4.50548L13.2811 4.03787L12.4855 4.03787ZM9.42719 3.28126L9.67303 4.03787L10.4686 4.03787L9.82497 4.50548L10.0708 5.26209L9.42719 4.79448L8.78358 5.26209L9.02942 4.50548L8.38581 4.03787L9.18136 4.03787L9.42719 3.28126ZM11.0793 5.91287L10.8334 5.15626L10.5876 5.91287L9.79206 5.91287L10.4357 6.38048L10.1898 7.13709L10.8334 6.66948L11.4771 7.13709L11.2312 6.38048L11.8748 5.91287L11.0793 5.91287Z" fill="#374151"/>
</svg>
