<svg width="16" height="15" viewBox="0 0 16 15" fill="none" xmlns="http://www.w3.org/2000/svg">
<path fill-rule="evenodd" clip-rule="evenodd" d="M5.8601 3.77622C6.02603 3.75888 6.19438 3.75 6.36472 3.75C8.64316 3.75 10.5637 5.33895 11.1519 7.5065C11.199 7.50344 11.2464 7.50145 11.294 7.50056C11.2747 7.50022 11.2553 7.50005 11.2358 7.50005L11.2201 7.50009L11.2201 7.5H11.9389H11.9672V7.49976C12.8602 7.48469 13.5796 6.75604 13.5796 5.85938C13.5796 4.95328 12.845 4.21875 11.9389 4.21875C11.6347 4.21875 11.3498 4.30156 11.1056 4.44586C11.1049 4.18396 11.0651 3.93123 10.9918 3.69321C10.6265 2.63506 9.62179 1.875 8.43951 1.875C7.22655 1.875 6.20044 2.67504 5.8601 3.77622ZM13.1936 8.11212C13.995 8.70744 14.5171 9.68111 14.5171 10.7812C14.5171 12.5934 13.1003 14.0625 11.3527 14.0625C11.3136 14.0625 11.2746 14.0617 11.2358 14.0603V14.0625H6.43918V14.0619C6.4144 14.0623 6.38959 14.0625 6.36472 14.0625C3.61841 14.0625 1.39209 11.754 1.39209 8.90625C1.39209 6.60672 2.84378 4.65877 4.84871 3.99402C5.12658 2.26128 6.62845 0.9375 8.43951 0.9375C9.99335 0.9375 11.3196 1.91196 11.8405 3.2831C11.8731 3.28187 11.906 3.28125 11.9389 3.28125C13.3628 3.28125 14.5171 4.43552 14.5171 5.85938C14.5171 6.82776 13.9832 7.67145 13.1936 8.11212ZM11.2358 13.125H6.43918H6.38523V13.1249L6.36472 13.125C4.16793 13.125 2.32959 11.2685 2.32959 8.90625C2.32959 6.54397 4.16793 4.6875 6.36472 4.6875C8.22828 4.6875 9.83388 6.02346 10.2781 7.87085L10.2795 7.87027C10.3423 8.1266 10.3823 8.39234 10.3972 8.66507C10.6892 8.51867 11.0142 8.4375 11.3527 8.4375C12.5508 8.4375 13.5796 9.4545 13.5796 10.7812C13.5796 12.0987 12.5652 13.1107 11.3778 13.1248V13.125H11.2358Z" fill="#374151"/>
</svg>
