<svg width="16" height="15" viewBox="0 0 16 15" fill="none" xmlns="http://www.w3.org/2000/svg">
<path fill-rule="evenodd" clip-rule="evenodd" d="M1.48291 6.09375C1.48291 8.13879 2.63106 9.90576 4.29541 10.7394V9.65637C3.17519 8.91339 2.42041 7.60741 2.42041 6.09375C2.42041 3.73147 4.25875 1.875 6.45554 1.875C8.3191 1.875 9.9247 3.21096 10.3689 5.05835L10.3704 5.05777C10.4331 5.3141 10.4731 5.57984 10.488 5.85257C10.7801 5.70617 11.105 5.625 11.4435 5.625C12.6416 5.625 13.6704 6.642 13.6704 7.96874C13.6704 8.77054 13.2947 9.45922 12.7329 9.87866V10.9661C13.8379 10.4543 14.6079 9.30476 14.6079 7.96874C14.6079 6.15656 13.1912 4.6875 11.4435 4.6875C11.3761 4.6875 11.3091 4.68969 11.2428 4.694C10.6545 2.52645 8.73398 0.9375 6.45554 0.9375C3.70923 0.9375 1.48291 3.24603 1.48291 6.09375ZM9.31992 9.46997C9.41822 9.52674 9.57219 9.50196 9.65092 9.36554C9.69404 9.29084 9.74946 9.13567 9.78961 8.88306C9.80561 8.78235 9.81768 8.67614 9.82641 8.56707C9.55263 8.76077 9.3452 8.95709 9.24483 9.131C9.1661 9.26742 9.22163 9.4132 9.31992 9.46997ZM9.82403 7.46331C10.3126 7.18957 10.7263 7.0332 10.7263 7.0332C10.7263 7.0332 10.7804 7.47338 10.7825 8.028C10.7848 8.63557 10.7248 9.38046 10.4628 9.83442C10.1333 10.4053 9.4118 10.6057 8.8513 10.2819C8.2908 9.95822 8.10352 9.23301 8.433 8.66213C8.72052 8.16396 9.31322 7.74949 9.82403 7.46331ZM6.22484 9.94702C6.32313 10.0038 6.47711 9.979 6.55584 9.84259C6.59896 9.76788 6.65438 9.61272 6.69452 9.36011C6.71053 9.2594 6.7226 9.15318 6.73133 9.04412C6.45755 9.23782 6.25012 9.43413 6.14975 9.60805C6.07102 9.74446 6.12655 9.89025 6.22484 9.94702ZM6.72895 7.94035C7.21755 7.66661 7.63122 7.51024 7.63122 7.51024C7.63122 7.51024 7.68533 7.95043 7.68744 8.50505C7.68976 9.11262 7.62967 9.8575 7.36767 10.3115C7.03819 10.8823 6.31672 11.0827 5.75622 10.759C5.19572 10.4353 5.00844 9.71005 5.33792 9.13917C5.62544 8.641 6.21814 8.22654 6.72895 7.94035ZM10.7076 12.2404C10.6289 12.3768 10.4749 12.4016 10.3766 12.3448C10.2783 12.2881 10.2228 12.1423 10.3015 12.0059C10.4019 11.8319 10.6093 11.6356 10.8831 11.4419C10.8743 11.551 10.8623 11.6572 10.8463 11.7579C10.8061 12.0105 10.7507 12.1657 10.7076 12.2404ZM11.783 9.90805C11.783 9.90805 11.3693 10.0644 10.8807 10.3382C10.3699 10.6244 9.77718 11.0388 9.48967 11.537C9.16018 12.1079 9.34746 12.8331 9.90796 13.1568C10.4685 13.4805 11.1899 13.2802 11.5194 12.7093C11.7814 12.2553 11.8415 11.5104 11.8392 10.9029C11.8371 10.3482 11.783 9.90805 11.783 9.90805ZM7.22737 13.0957C7.32567 13.1525 7.47964 13.1277 7.55837 12.9913C7.60149 12.9166 7.65691 12.7614 7.69705 12.5088C7.71306 12.4081 7.72513 12.3019 7.73386 12.1928C7.46008 12.3865 7.25265 12.5828 7.15228 12.7567C7.07355 12.8932 7.12908 13.0389 7.22737 13.0957ZM7.73148 11.0891C8.22008 10.8153 8.63375 10.6589 8.63375 10.6589C8.63375 10.6589 8.68786 11.0991 8.68997 11.6537C8.69229 12.2613 8.6322 13.0062 8.3702 13.4602C8.04072 14.031 7.31925 14.2314 6.75875 13.9077C6.19825 13.584 6.01097 12.8588 6.34045 12.2879C6.62797 11.7897 7.22067 11.3752 7.73148 11.0891Z" fill="#374151"/>
</svg>
