<svg width="16" height="15" viewBox="0 0 16 15" fill="none" xmlns="http://www.w3.org/2000/svg">
<path fill-rule="evenodd" clip-rule="evenodd" d="M7.75854 2.34375V0.9375H8.69604V2.34375H7.75854ZM11.4438 10.2299C11.7771 10.6348 11.9773 11.1534 11.9773 11.7187C11.9773 13.0131 10.928 14.0624 9.63355 14.0624L9.61637 14.0624H6.13608V14.0623L6.11792 14.0624C4.1763 14.0624 2.60229 12.4884 2.60229 10.5468C2.60229 9.39383 3.15728 8.37052 4.01468 7.72941C4.01061 7.65346 4.00854 7.57697 4.00854 7.5C4.00854 5.17005 5.89734 3.28125 8.22729 3.28125C10.5572 3.28125 12.446 5.17005 12.446 7.5C12.446 8.54111 12.0689 9.49414 11.4438 10.2299ZM10.7155 9.63909C10.3918 9.47034 10.0238 9.37494 9.63355 9.37494C9.23723 9.37494 8.86388 9.47331 8.53659 9.64697C8.64096 9.92713 8.698 10.2303 8.698 10.5469C8.698 10.5886 8.69701 10.6301 8.69505 10.6714C8.94396 10.4482 9.2729 10.3124 9.63355 10.3124C10.4102 10.3124 11.0398 10.942 11.0398 11.7187C11.0398 12.4953 10.4102 13.1249 9.63354 13.1249V13.1249H9.62024L9.60223 13.1246H6.15697C6.14398 13.1248 6.13096 13.1249 6.11792 13.1249C4.69406 13.1249 3.53979 11.9706 3.53979 10.5468C3.53979 9.1229 4.69406 7.96864 6.11792 7.96864C7.2256 7.96864 8.17013 8.66719 8.53499 9.64779C8.80785 9.50274 9.11279 9.41004 9.43639 9.38309C8.9561 8.01335 7.65171 7.03114 6.11792 7.03114C5.71119 7.03114 5.3206 7.10021 4.95722 7.22726C5.09584 5.54268 6.50696 4.21875 8.22729 4.21875C10.0395 4.21875 11.5085 5.68782 11.5085 7.5C11.5085 8.31723 11.2098 9.06468 10.7155 9.63909ZM14.7898 7.03125H13.3835V7.96875H14.7898V7.03125ZM12.4584 4.51593L13.6762 3.8128L14.1449 4.6247L12.9271 5.32782L12.4584 4.51593ZM11.1026 1.58237L10.3995 2.80022L11.2114 3.26897L11.9145 2.05112L11.1026 1.58237ZM5.24322 3.26897L4.5401 2.05112L5.35199 1.58237L6.05512 2.80022L5.24322 3.26897ZM2.30964 4.6247L3.52749 5.32782L3.99624 4.51593L2.77839 3.8128L2.30964 4.6247ZM1.66479 7.03125H3.07104V7.96875H1.66479V7.03125ZM12.4584 10.4841L13.6762 11.1872L14.145 10.3753L12.9271 9.67218L12.4584 10.4841Z" fill="#374151"/>
</svg>
