<svg width="16" height="15" viewBox="0 0 16 15" fill="none" xmlns="http://www.w3.org/2000/svg">
<path fill-rule="evenodd" clip-rule="evenodd" d="M12.1193 6.24001C12.8218 6.21716 13.489 5.93169 13.9871 5.44194C14.2438 5.18609 14.4499 4.88068 14.5895 4.54154C14.7782 5.08567 14.8806 5.66952 14.8806 6.27706C14.8806 8.66788 13.2943 10.6917 11.1073 11.3721C11.1243 11.486 11.1331 11.6026 11.1331 11.7212C11.1331 13.0163 10.0832 14.0662 8.78814 14.0662C8.74433 14.0662 8.7008 14.065 8.65758 14.0626H5.27359V14.0619L5.27064 14.0619C3.328 14.0619 1.75317 12.502 1.75317 10.5778C1.75317 9.02672 2.77638 7.71238 4.19067 7.26092C4.13071 6.94203 4.09936 6.61317 4.09936 6.27706C4.09936 3.3281 6.51282 0.9375 9.48998 0.9375C9.91057 0.9375 10.3199 0.98521 10.7128 1.07546C10.384 1.24662 10.0941 1.48084 9.85959 1.76183C9.41813 2.30625 9.20163 2.99689 9.25478 3.69407C9.30877 4.40238 9.63691 5.06268 10.1707 5.53708C10.7045 6.01149 11.4026 6.26333 12.1193 6.24001ZM5.1141 7.09701C5.166 7.09476 5.21818 7.09362 5.27064 7.09362C6.79054 7.09362 8.08529 8.04849 8.57682 9.38563C8.64643 9.37942 8.71691 9.37624 8.78814 9.37624C9.63184 9.37624 10.3715 9.8218 10.7846 10.4905C12.4965 9.97746 13.7669 8.47348 13.9262 6.66274C13.3916 6.97623 12.7817 7.15503 12.1504 7.17556C11.1901 7.2068 10.2548 6.86939 9.5396 6.23377C8.82444 5.59816 8.38479 4.71348 8.31245 3.76447C8.26476 3.13877 8.37916 2.517 8.63768 1.95541C6.58061 2.34905 5.03686 4.14061 5.03686 6.27706C5.03686 6.5571 5.06338 6.8312 5.1141 7.09701ZM5.28293 13.1244L5.27064 13.1244C3.83733 13.1244 2.69067 11.9759 2.69067 10.5778C2.69067 9.17969 3.83733 8.03112 5.27064 8.03112C6.38336 8.03112 7.32332 8.72335 7.68813 9.68715L7.69054 9.68588C7.795 9.96358 7.8521 10.2641 7.8521 10.5779C7.8521 10.6093 7.85153 10.6405 7.85039 10.6716C8.09933 10.449 8.42794 10.3137 8.78814 10.3137C9.56547 10.3137 10.1956 10.9439 10.1956 11.7212C10.1956 12.4985 9.56547 13.1287 8.78814 13.1287H8.78686V13.1251H8.68707L8.67732 13.1244H6.90913L6.90968 13.1251H6.90624L6.90569 13.1244H5.28293Z" fill="#374151"/>
</svg>
