<svg width="16" height="15" viewBox="0 0 16 15" fill="none" xmlns="http://www.w3.org/2000/svg">
<path fill-rule="evenodd" clip-rule="evenodd" d="M11.3408 11.2299C12.9229 11.0484 14.1533 9.65759 14.1533 7.96874C14.1533 6.15656 12.7366 4.6875 10.9889 4.6875C10.9215 4.6875 10.8546 4.68969 10.7882 4.694C10.1999 2.52645 8.27939 0.9375 6.00095 0.9375C3.25464 0.9375 1.02832 3.24603 1.02832 6.09375C1.02832 8.50401 2.62318 10.528 4.77832 11.093V10.1143C3.16235 9.57616 1.96582 7.99957 1.96582 6.09375C1.96582 3.73147 3.80416 1.875 6.00095 1.875C7.86451 1.875 9.47011 3.21096 9.91435 5.05835L9.91576 5.05777C9.9785 5.3141 10.0185 5.57984 10.0334 5.85257C10.3255 5.70617 10.6504 5.625 10.9889 5.625C12.1871 5.625 13.2158 6.642 13.2158 7.96874C13.2158 9.16343 12.3817 10.107 11.3408 10.283V11.2299ZM6.41991 13.126C6.53342 13.126 6.65436 13.0275 6.65431 12.87C6.65429 12.7838 6.62468 12.6217 6.5331 12.3829C6.49659 12.2876 6.45392 12.1896 6.40694 12.0908C6.26673 12.3955 6.18529 12.6692 6.18536 12.87C6.1854 13.0275 6.3064 13.126 6.41991 13.126ZM5.85285 11.1362C6.13904 10.6548 6.41905 10.3125 6.41905 10.3125C6.41905 10.3125 6.68606 10.6666 6.96528 11.1458C7.27114 11.6708 7.59165 12.3459 7.59181 12.87C7.59201 13.5292 7.06747 14.0635 6.4202 14.0635C5.77293 14.0635 5.24806 13.5292 5.24786 12.87C5.24768 12.2948 5.55364 11.6395 5.85285 11.1362ZM9.46681 11.4638C9.46686 11.6213 9.34592 11.7197 9.23241 11.7197C9.1189 11.7197 8.9979 11.6213 8.99786 11.4638C8.99779 11.263 9.07923 10.9892 9.21944 10.6846C9.26642 10.7834 9.30909 10.8814 9.3456 10.9766C9.43718 11.2154 9.46679 11.3775 9.46681 11.4638ZM9.23155 8.90625C9.23155 8.90625 8.95154 9.24855 8.66535 9.72996C8.36614 10.2333 8.06018 10.8886 8.06036 11.4638C8.06056 12.1229 8.58543 12.6572 9.2327 12.6572C9.87997 12.6572 10.4045 12.1229 10.4043 11.4638C10.4042 10.9396 10.0836 10.2645 9.77778 9.73958C9.49856 9.26037 9.23155 8.90625 9.23155 8.90625Z" fill="#374151"/>
</svg>
