<svg width="32" height="32" viewBox="0 0 32 32" fill="none" xmlns="http://www.w3.org/2000/svg">
<path d="M25.4433 23.3959V22.8291C25.4433 20.0271 26.8133 17.3891 29.1081 15.7724L29.4725 15.5156V13.5431H28.6131C26.7673 13.5431 24.9583 14.1138 23.3569 15.1639C23.3718 15.1354 23.3863 15.1069 23.4013 15.0786C24.477 13.0512 26.0397 11.2793 27.9204 9.95428L28.2848 9.69755V8L27.2638 8.19554C24.587 8.70818 22.0568 9.90054 19.9468 11.6436C18.3378 12.9728 16.9947 14.6034 15.9981 16.4244C13.7174 12.2498 9.65924 9.13844 4.73611 8.19559L3.71511 8.00006V9.69761L4.07949 9.95433C5.9602 11.2794 7.52289 13.0513 8.5986 15.0786C8.61361 15.1069 8.62816 15.1355 8.643 15.1639C7.04164 14.1138 5.2326 13.5432 3.38683 13.5432H2.52746V15.5157L2.89183 15.7724C5.18659 17.3891 6.55661 20.0272 6.55661 22.8292V23.3959H1.33333V25.1147H30.6667V23.3959H25.4433V23.3959ZM26.7744 15.496C24.841 17.4224 23.7246 20.0589 23.7246 22.8291V23.3959H21.7036V21.9258C21.7036 20.8121 21.8316 19.7025 22.0809 18.6228C23.3726 17.0305 25.017 15.9461 26.7744 15.496ZM21.0414 12.9686C22.0039 12.1735 23.064 11.5065 24.1891 10.9828C23.2896 11.981 22.5119 13.0878 21.8831 14.2729C20.6412 16.6133 19.9848 19.2597 19.9848 21.9258V23.3959H17.9737C17.8831 21.6651 17.5209 19.996 16.9252 18.4352C17.8414 16.3257 19.2591 14.441 21.0414 12.9686ZM7.80471 10.976C12.6177 13.2095 15.9347 17.9568 16.2528 23.3959H12.0151V21.9258C12.0151 19.2596 11.3587 16.6133 10.1168 14.2729C9.48662 13.0852 8.70682 11.9759 7.80471 10.976ZM5.22555 15.496C6.98297 15.9461 8.62736 17.0305 9.91917 18.6229C10.1684 19.7025 10.2964 20.8121 10.2964 21.9259V23.3959H8.27547V22.8292C8.27542 20.0589 7.15903 17.4224 5.22555 15.496Z" fill="#4338CA"/>
</svg>
