<svg width="32" height="32" viewBox="0 0 32 32" fill="none" xmlns="http://www.w3.org/2000/svg">
<path d="M26.1546 16.1903C25.4955 15.9873 24.7969 16.053 24.1874 16.3755C23.8408 16.5589 23.5467 16.8129 23.32 17.1191L21.8063 16.6528C21.8475 16.376 21.8691 16.0928 21.8691 15.8047C21.8691 14.603 21.4973 13.4866 20.863 12.564L22.0224 11.4812C22.3601 11.6575 22.7357 11.7575 23.1276 11.7709C23.1578 11.7719 23.1879 11.7724 23.218 11.7724C23.874 11.7724 24.496 11.5276 24.9778 11.0775C26.0181 10.1059 26.074 8.46904 25.1024 7.42874C24.6317 6.9248 23.993 6.63428 23.3038 6.61073C22.6146 6.58753 21.9576 6.83342 21.4537 7.30413C20.6335 8.07018 20.4257 9.24947 20.8504 10.2241L19.6896 11.3082C18.9244 10.7019 18.0015 10.2863 16.9934 10.1342V8.54879C17.9956 8.19387 18.7157 7.2371 18.7157 6.11487C18.7157 4.69134 17.5576 3.53325 16.1341 3.53325C14.7106 3.53325 13.5525 4.69134 13.5525 6.11487C13.5525 7.2371 14.2725 8.19387 15.2747 8.54879V10.1342C14.2666 10.2863 13.3437 10.7019 12.5785 11.3082L11.4178 10.2241C11.8424 9.24941 11.6347 8.07012 10.8145 7.30413C9.77412 6.33252 8.1373 6.38838 7.16569 7.42874C6.19408 8.46904 6.24999 10.1059 7.2903 11.0775C7.78713 11.5416 8.41997 11.7712 9.0515 11.7712C9.46239 11.7712 9.87243 11.6732 10.2444 11.48L11.4051 12.5641C10.7708 13.4867 10.399 14.6031 10.399 15.8048C10.399 15.8667 10.4003 15.9283 10.4023 15.9897L8.8441 16.2776C8.65447 15.9472 8.39184 15.6607 8.06872 15.4383C7.50061 15.0474 6.81432 14.9012 6.13633 15.0264C5.45822 15.1517 4.86949 15.5335 4.47859 16.1016C4.08769 16.6696 3.94143 17.3559 4.06667 18.034C4.29612 19.276 5.38409 20.1469 6.60423 20.1469C6.75926 20.1469 6.91647 20.1328 7.07425 20.1037C7.75235 19.9784 8.34108 19.5966 8.73198 19.0285C8.95433 18.7055 9.09728 18.3441 9.1564 17.9677L10.7142 17.6799C10.967 18.4086 11.3628 19.071 11.868 19.6334L10.8581 20.8597C9.85891 20.4966 8.69486 20.7775 7.98146 21.6438C7.0766 22.7426 7.23438 24.3727 8.33318 25.2777C8.79976 25.6619 9.37291 25.8667 9.96954 25.8667C10.0536 25.8667 10.1382 25.8626 10.2229 25.8544C10.9093 25.788 11.5287 25.4583 11.9671 24.9259C12.6804 24.0596 12.7328 22.8633 12.1848 21.9522L13.1939 20.7269C14.0542 21.2427 15.06 21.5397 16.1341 21.5397C16.6185 21.5397 17.0891 21.4791 17.5387 21.3655L18.153 22.827C17.3666 23.5425 17.0735 24.7035 17.5082 25.7381C17.9229 26.7247 18.8829 27.3195 19.8917 27.3195C20.2245 27.3195 20.5627 27.2547 20.8883 27.1179C21.524 26.8507 22.0176 26.352 22.2783 25.7136C22.5389 25.0752 22.5353 24.3735 22.2681 23.7378C21.8333 22.7032 20.7988 22.1001 19.7375 22.1611L19.1225 20.6978C20.0587 20.1239 20.8185 19.2891 21.2995 18.2952L22.814 18.7618C22.8292 19.1424 22.9293 19.5179 23.1127 19.8646C23.4351 20.4741 23.9756 20.9216 24.6346 21.1246C24.8857 21.2019 25.1424 21.2403 25.3978 21.2403C25.8129 21.2403 26.2244 21.139 26.6017 20.9394C27.2112 20.617 27.6587 20.0765 27.8617 19.4175C28.0648 18.7585 27.999 18.0599 27.6766 17.4504C27.3541 16.8408 26.8136 16.3933 26.1546 16.1903ZM7.31613 18.0541C7.18545 18.244 6.98871 18.3716 6.76212 18.4134C6.29411 18.4998 5.84328 18.1895 5.75688 17.7217C5.67049 17.2539 5.98078 16.8029 6.44862 16.7165C6.50139 16.7068 6.55387 16.7021 6.60572 16.7021C7.01352 16.7021 7.37715 16.9932 7.45381 17.4083C7.49569 17.6348 7.44676 17.8642 7.31613 18.0541ZM20.6835 24.4036C20.7729 24.6161 20.7741 24.8506 20.6869 25.064C20.5998 25.2774 20.4348 25.444 20.2224 25.5334C19.7839 25.7177 19.277 25.5108 19.0927 25.0722C18.9084 24.6335 19.1152 24.1268 19.5538 23.9424C19.7662 23.8531 20.0009 23.852 20.2142 23.9391C20.4276 24.0262 20.5942 24.1912 20.6835 24.4036ZM22.6268 8.56019C22.9745 8.23552 23.5215 8.25414 23.8463 8.6019C24.0036 8.77028 24.0859 8.98988 24.078 9.22025C24.0702 9.45062 23.9731 9.66409 23.8047 9.82141C23.457 10.1461 22.91 10.1275 22.5852 9.7797C22.4278 9.61132 22.3455 9.39172 22.3534 9.16135C22.3613 8.93098 22.4584 8.71751 22.6268 8.56019ZM16.134 5.252C16.6098 5.252 16.9969 5.63906 16.9969 6.11487C16.9969 6.59068 16.6098 6.97768 16.134 6.97768C15.6582 6.97768 15.2712 6.59062 15.2712 6.11487C15.2712 5.63912 15.6583 5.252 16.134 5.252ZM8.46346 9.82135C8.11575 9.49662 8.09708 8.94955 8.42181 8.60184C8.59145 8.42017 8.82176 8.32833 9.0527 8.32833C9.26377 8.32833 9.47529 8.4051 9.64132 8.56019C9.98902 8.88492 10.0077 9.432 9.68297 9.7797C9.35824 10.1274 8.81116 10.1461 8.46346 9.82135ZM10.6403 23.8333C10.3379 24.2006 9.79303 24.2534 9.42579 23.9509C9.05849 23.6484 9.00578 23.1036 9.30822 22.7363C9.61067 22.369 10.1555 22.3162 10.5227 22.6187C10.89 22.9212 10.9428 23.4661 10.6403 23.8333ZM16.134 19.821C13.9195 19.821 12.1177 18.0193 12.1177 15.8048C12.1177 13.5902 13.9195 11.7885 16.134 11.7885C18.3486 11.7885 20.1503 13.5902 20.1503 15.8048C20.1503 18.0193 18.3486 19.821 16.134 19.821ZM26.2191 18.9115C26.1513 19.1318 26.0017 19.3124 25.798 19.4202C25.5942 19.5279 25.3608 19.5499 25.1405 19.4821C24.9202 19.4143 24.7396 19.2647 24.6318 19.061C24.524 18.8572 24.502 18.6238 24.5699 18.4035C24.6378 18.1832 24.7873 18.0025 24.9911 17.8948C25.1172 17.828 25.2547 17.7942 25.3934 17.7942C25.4788 17.7942 25.5646 17.8071 25.6485 17.8329C25.8688 17.9007 26.0494 18.0503 26.1572 18.2541C26.265 18.4577 26.287 18.6912 26.2191 18.9115Z" fill="#4338CA"/>
<path d="M16.8594 14.9831H18.5781V16.7018H16.8594V14.9831Z" fill="#4338CA"/>
<path d="M5.25025 2.85846H6.969V4.57721H5.25025V2.85846Z" fill="#4338CA"/>
<path d="M1.33334 9.1441H3.05209V10.8629H1.33334V9.1441Z" fill="#4338CA"/>
<path d="M24.5351 2.28125H26.2539V4H24.5351V2.28125Z" fill="#4338CA"/>
<path d="M26.2578 12.4152H27.9765V14.1339H26.2578V12.4152Z" fill="#4338CA"/>
<path d="M24.9379 23.5753H26.6567V25.2941H24.9379V23.5753Z" fill="#4338CA"/>
<path d="M28.9479 27.2954H30.6667V29.0141H28.9479V27.2954Z" fill="#4338CA"/>
<path d="M13.56 26.2686H15.2787V27.9873H13.56V26.2686Z" fill="#4338CA"/>
<path d="M2.49229 28.0009H4.21104V29.7196H2.49229V28.0009Z" fill="#4338CA"/>
<path d="M3.35166 21.7153H5.07041V23.434H3.35166V21.7153Z" fill="#4338CA"/>
</svg>
