<svg width="32" height="32" viewBox="0 0 32 32" fill="none" xmlns="http://www.w3.org/2000/svg">
<mask id="mask0_33794_4586" style="mask-type:luminance" maskUnits="userSpaceOnUse" x="1" y="1" width="30" height="30">
<path d="M1.33334 1.33333H30.6667V30.6667H1.33334V1.33333Z" fill="white"/>
</mask>
<g mask="url(#mask0_33794_4586)">
<path d="M17.9931 6.1432V4.19013C17.9931 3.08698 18.8874 2.19271 19.9905 2.19271C20.9162 2.19271 21.7205 2.82865 21.934 3.72916L23.6414 10.9283C24.9812 16.5777 24.3279 22.5165 21.792 27.7395C20.9215 29.5326 18.7788 30.3029 16.9658 29.4746L16 29.0333L15.0342 29.4746C13.2212 30.3029 11.0786 29.5326 10.208 27.7395C7.67216 22.5165 7.01886 16.5777 8.35863 10.9283L10.066 3.72916C10.2796 2.82865 11.0839 2.19271 12.0095 2.19271C13.1126 2.19271 14.0069 3.08698 14.0069 4.19013V6.1432" stroke="#4338CA" stroke-width="1.8" stroke-miterlimit="10"/>
<path d="M14.0068 23.698V6.1425C14.0068 5.04175 14.8991 4.14944 15.9999 4.14944C17.1006 4.14944 17.993 5.04175 17.993 6.1425V23.698" stroke="#4338CA" stroke-width="1.8" stroke-miterlimit="10"/>
</g>
</svg>
