<svg width="32" height="32" viewBox="0 0 32 32" fill="none" xmlns="http://www.w3.org/2000/svg">
<path d="M21.5131 6.95369H19.2597C19.1669 6.95369 19.0751 6.95788 18.9839 6.96395C19.2594 5.64751 18.8882 4.22143 17.8682 3.20145L16.0001 1.33333L14.1319 3.20151C13.1119 4.22148 12.7408 5.64751 13.0163 6.96401C12.925 6.95793 12.8332 6.95375 12.7405 6.95375H10.487V10.1748C10.487 10.9566 10.706 11.6881 11.0857 12.3115H10.487V15.5325C10.487 16.3143 10.706 17.0459 11.0857 17.6693H10.487V20.8903C10.487 23.1617 12.3348 25.0095 14.6062 25.0095H15.1404V30.6667H16.8597V25.0095H17.3939C19.6653 25.0095 21.5131 23.1617 21.5131 20.8903V17.6693H20.9144C21.2942 17.0459 21.5131 16.3143 21.5131 15.5325V12.3115H20.9144C21.2942 11.6881 21.5131 10.9566 21.5131 10.1748V6.95369ZM19.7938 8.67304V10.1747C19.7938 11.498 18.7173 12.5746 17.3939 12.5746H16.8597V11.073C16.8597 9.74963 17.9363 8.67304 19.2597 8.67304H19.7938ZM12.2063 14.0309H12.7404C14.0637 14.0309 15.1403 15.1075 15.1403 16.4308V17.9325H14.6061C13.2828 17.9325 12.2063 16.8559 12.2063 15.5325V14.0309ZM17.3939 17.9325H16.8597V16.4308C16.8597 15.1075 17.9363 14.0309 19.2597 14.0309H19.7938V15.5325C19.7938 16.8559 18.7173 17.9325 17.3939 17.9325ZM15.3476 4.41726L16.0001 3.76482L16.6525 4.41726C17.5882 5.35298 17.5882 6.87558 16.6525 7.8113L16.0001 8.46374L15.3476 7.8113C14.412 6.87552 14.412 5.35298 15.3476 4.41726ZM12.2063 8.67304H12.7404C14.0637 8.67304 15.1403 9.74963 15.1403 11.073V12.5746H14.6061C13.2828 12.5746 12.2063 11.498 12.2063 10.1747V8.67304ZM14.6061 23.2902C13.2828 23.2902 12.2063 22.2136 12.2063 20.8903V19.3886H12.7404C14.0637 19.3886 15.1403 20.4652 15.1403 21.7885V23.2902H14.6061ZM19.7938 20.8903C19.7938 22.2136 18.7173 23.2902 17.3939 23.2902H16.8597V21.7885C16.8597 20.4652 17.9363 19.3886 19.2597 19.3886H19.7938V20.8903Z" fill="#4338CA"/>
</svg>
