<svg width="32" height="32" viewBox="0 0 32 32" fill="none" xmlns="http://www.w3.org/2000/svg">
<path d="M23.9157 8.17774C23.6559 6.3805 22.7927 4.72781 21.4501 3.47742C19.9655 2.0948 18.0301 1.33333 16.0003 1.33333C13.9705 1.33333 12.0351 2.0948 10.5504 3.47742C9.20782 4.72781 8.34461 6.3805 8.08473 8.17774C5.19294 9.44045 3.28581 12.321 3.28581 15.5098C3.28581 19.92 6.87382 23.508 11.284 23.508C12.6433 23.508 13.9679 23.1624 15.1408 22.5164V30.6667H16.8595V22.5164C18.0324 23.1624 19.357 23.508 20.7163 23.508C25.1265 23.508 28.7145 19.92 28.7145 15.5098C28.7147 12.321 26.8075 9.44039 23.9157 8.17774ZM20.7164 21.7892C19.3142 21.7892 17.959 21.3211 16.8596 20.4645V15.208L20.7142 13.1813L19.9143 11.66L16.8596 13.2662V9.88297H15.1409V17.0756L12.0863 15.4695L11.2864 16.9908L15.1409 19.0175V20.4645C14.0416 21.3211 12.6863 21.7892 11.2841 21.7892C7.82159 21.7892 5.00468 18.9722 5.00468 15.5098C5.00468 12.8622 6.67908 10.4853 9.17121 9.5949L9.69692 9.4071L9.73897 8.85046C9.85803 7.27671 10.5622 5.8152 11.7218 4.7352C12.8872 3.64981 14.4067 3.05208 16.0003 3.05208C17.5938 3.05208 19.1133 3.64981 20.2788 4.73514C21.4384 5.81514 22.1426 7.2766 22.2616 8.8504L22.3037 9.40705L22.8294 9.59485C25.3215 10.4852 26.9959 12.8622 26.9959 15.5097C26.9959 18.9722 24.1789 21.7892 20.7164 21.7892Z" fill="#4338CA"/>
</svg>
