<svg width="80" height="80" viewBox="0 0 80 80" fill="none" xmlns="http://www.w3.org/2000/svg">
<g clip-path="url(#clip0_33794_5355)">
<path d="M71.4062 28.9062C71.4062 36.4139 65.3201 42.5 57.8125 42.5C50.3049 42.5 44.2188 36.4139 44.2188 28.9062C44.2188 21.3986 50.3049 15.3125 57.8125 15.3125C65.3201 15.3125 71.4062 21.3986 71.4062 28.9062Z" fill="url(#paint0_linear_33794_5355)"/>
<path d="M69.8437 43.8919C69.8437 49.4226 65.3519 53.9062 59.8091 53.9062H23.4985C16.1303 53.9062 10.1562 47.9452 10.1562 40.5889C10.1562 33.2348 16.1303 27.2716 23.4985 27.2716C24.1593 27.2716 24.8088 27.3222 25.4457 27.4144C28.4588 21.442 34.6554 17.3438 41.8137 17.3438C50.4753 17.3438 57.7315 23.3463 59.6379 31.4107C59.8281 32.2159 59.9655 33.0407 60.0444 33.881V33.8832C65.4759 34.0069 69.8437 38.4399 69.8437 43.8919Z" fill="#BAC7CB" fill-opacity="0.4"/>
<g filter="url(#filter0_b_33794_5355)">
<path d="M69.8437 43.8919C69.8437 49.4226 65.3519 53.9062 59.8091 53.9062H23.4985C16.1303 53.9062 10.1562 47.9452 10.1562 40.5889C10.1562 33.2348 16.1303 27.2716 23.4985 27.2716C24.1593 27.2716 24.8088 27.3222 25.4457 27.4144C28.4588 21.442 34.6554 17.3438 41.8137 17.3438C50.4753 17.3438 57.7315 23.3463 59.6379 31.4107C59.8281 32.2159 59.9655 33.0407 60.0444 33.881V33.8832C65.4759 34.0069 69.8437 38.4399 69.8437 43.8919Z" fill="url(#paint1_linear_33794_5355)"/>
</g>
<g filter="url(#filter1_b_33794_5355)">
<path fill-rule="evenodd" clip-rule="evenodd" d="M25.6234 27.7558L25.401 27.7236C24.7779 27.6335 24.1433 27.5841 23.4985 27.5841C16.3023 27.5841 10.4687 33.4079 10.4687 40.5889C10.4687 47.772 16.3023 53.5938 23.4985 53.5938H59.8091C65.1799 53.5938 69.5312 49.2494 69.5312 43.8919C69.5312 38.6108 65.3001 34.3155 60.0372 34.1956L59.7319 34.1886V33.8958C59.6541 33.0751 59.5196 32.2694 59.3337 31.4826C57.4601 23.5563 50.3275 17.6562 41.8137 17.6562C34.7777 17.6562 28.6866 21.6842 25.7247 27.5551L25.6234 27.7558ZM60.0444 33.881V33.8832C65.4759 34.0069 69.8437 38.4399 69.8437 43.8919C69.8437 49.4226 65.3519 53.9062 59.8091 53.9062H23.4985C16.1303 53.9062 10.1562 47.9452 10.1562 40.5889C10.1562 33.2348 16.1303 27.2716 23.4985 27.2716C24.1593 27.2716 24.8088 27.3222 25.4457 27.4144C28.4588 21.442 34.6554 17.3438 41.8137 17.3438C50.4753 17.3438 57.7315 23.3463 59.6379 31.4107C59.8281 32.2159 59.9655 33.0407 60.0444 33.881Z" fill="url(#paint2_linear_33794_5355)"/>
</g>
<path d="M69.8437 43.8919C69.8437 49.4226 65.3519 53.9062 59.8091 53.9062H23.4985C16.1303 53.9062 10.1562 47.9452 10.1562 40.5889C10.1562 33.2348 16.1303 27.2716 23.4985 27.2716C24.1593 27.2716 24.8088 27.3222 25.4457 27.4144C28.4588 21.442 34.6554 17.3438 41.8137 17.3438C50.4753 17.3438 57.7315 23.3463 59.6379 31.4107C59.8281 32.2159 59.9655 33.0407 60.0444 33.881V33.8832C65.4759 34.0069 69.8437 38.4399 69.8437 43.8919Z"/>
<g filter="url(#filter2_f_33794_5355)">
<path d="M50.1562 51.25C50.1562 59.1891 42.9159 65.625 33.9844 65.625C25.0529 65.625 17.8125 59.1891 17.8125 51.25C17.8125 43.3109 25.0529 36.875 33.9844 36.875C42.9159 36.875 50.1562 43.3109 50.1562 51.25Z" fill="#BAC7CB" fill-opacity="0.2"/>
</g>
<path d="M54.0291 52.9515C54.0291 57.0168 50.7275 60.3125 46.6532 60.3125H19.9634C14.5474 60.3125 10.1562 55.9309 10.1562 50.5237C10.1562 45.1181 14.5474 40.7349 19.9634 40.7349C20.4491 40.7349 20.9265 40.7721 21.3946 40.8398C23.6094 36.4499 28.1642 33.4375 33.4258 33.4375C39.7925 33.4375 45.1261 37.8496 46.5274 43.7773C46.6672 44.3691 46.7681 44.9754 46.8261 45.5931V45.5947C50.8186 45.6856 54.0291 48.9441 54.0291 52.9515Z" fill="#BAC7CB"/>
<g filter="url(#filter3_b_33794_5355)">
<path d="M54.0291 52.9515C54.0291 57.0168 50.7275 60.3125 46.6532 60.3125H19.9634C14.5474 60.3125 10.1562 55.9309 10.1562 50.5237C10.1562 45.1181 14.5474 40.7349 19.9634 40.7349C20.4491 40.7349 20.9265 40.7721 21.3946 40.8398C23.6094 36.4499 28.1642 33.4375 33.4258 33.4375C39.7925 33.4375 45.1261 37.8496 46.5274 43.7773C46.6672 44.3691 46.7681 44.9754 46.8261 45.5931V45.5947C50.8186 45.6856 54.0291 48.9441 54.0291 52.9515Z" fill="url(#paint3_linear_33794_5355)"/>
</g>
<g filter="url(#filter4_b_33794_5355)">
<path fill-rule="evenodd" clip-rule="evenodd" d="M21.5724 41.1813L21.3499 41.1491C20.8955 41.0834 20.4331 41.0474 19.9634 41.0474C14.7195 41.0474 10.4688 45.2912 10.4688 50.5237C10.4688 55.7577 14.7194 60 19.9634 60H46.6532C50.5554 60 53.7166 56.8437 53.7166 52.9515C53.7166 49.115 50.6427 45.9942 46.819 45.9071L46.5136 45.9001V45.6078C46.4568 45.0099 46.3587 44.4227 46.2232 43.8492C44.8547 38.0597 39.6447 33.75 33.4258 33.75C28.2865 33.75 23.8372 36.6921 21.6736 40.9806L21.5724 41.1813ZM46.8261 45.5931V45.5947C50.8186 45.6856 54.0291 48.9441 54.0291 52.9515C54.0291 57.0168 50.7274 60.3125 46.6532 60.3125H19.9634C14.5474 60.3125 10.1562 55.9309 10.1562 50.5237C10.1562 45.1181 14.5474 40.7349 19.9634 40.7349C20.4491 40.7349 20.9265 40.7721 21.3946 40.8398C23.6094 36.4499 28.1642 33.4375 33.4258 33.4375C39.7925 33.4375 45.1261 37.8496 46.5274 43.7773C46.6672 44.3691 46.7681 44.9754 46.8261 45.5931Z" fill="url(#paint4_linear_33794_5355)"/>
</g>
<path d="M54.0291 52.9515C54.0291 57.0168 50.7275 60.3125 46.6532 60.3125H19.9634C14.5474 60.3125 10.1562 55.9309 10.1562 50.5237C10.1562 45.1181 14.5474 40.7349 19.9634 40.7349C20.4491 40.7349 20.9265 40.7721 21.3946 40.8398C23.6094 36.4499 28.1642 33.4375 33.4258 33.4375C39.7925 33.4375 45.1261 37.8496 46.5274 43.7773C46.6672 44.3691 46.7681 44.9754 46.8261 45.5931V45.5947C50.8186 45.6856 54.0291 48.9441 54.0291 52.9515Z"/>
</g>
<defs>
<filter id="filter0_b_33794_5355" x="-20.8816" y="-13.6941" width="121.763" height="98.6382" filterUnits="userSpaceOnUse" color-interpolation-filters="sRGB">
<feFlood flood-opacity="0" result="BackgroundImageFix"/>
<feGaussianBlur in="BackgroundImageFix" stdDeviation="15.5189"/>
<feComposite in2="SourceAlpha" operator="in" result="effect1_backgroundBlur_33794_5355"/>
<feBlend mode="normal" in="SourceGraphic" in2="effect1_backgroundBlur_33794_5355" result="shape"/>
</filter>
<filter id="filter1_b_33794_5355" x="-20.8816" y="-13.6941" width="121.763" height="98.6382" filterUnits="userSpaceOnUse" color-interpolation-filters="sRGB">
<feFlood flood-opacity="0" result="BackgroundImageFix"/>
<feGaussianBlur in="BackgroundImageFix" stdDeviation="15.5189"/>
<feComposite in2="SourceAlpha" operator="in" result="effect1_backgroundBlur_33794_5355"/>
<feBlend mode="normal" in="SourceGraphic" in2="effect1_backgroundBlur_33794_5355" result="shape"/>
</filter>
<filter id="filter2_f_33794_5355" x="2.91434" y="21.9768" width="62.1401" height="58.5463" filterUnits="userSpaceOnUse" color-interpolation-filters="sRGB">
<feFlood flood-opacity="0" result="BackgroundImageFix"/>
<feBlend mode="normal" in="SourceGraphic" in2="BackgroundImageFix" result="shape"/>
<feGaussianBlur stdDeviation="7.44908" result="effect1_foregroundBlur_33794_5355"/>
</filter>
<filter id="filter3_b_33794_5355" x="-20.8816" y="2.39967" width="105.948" height="88.9507" filterUnits="userSpaceOnUse" color-interpolation-filters="sRGB">
<feFlood flood-opacity="0" result="BackgroundImageFix"/>
<feGaussianBlur in="BackgroundImageFix" stdDeviation="15.5189"/>
<feComposite in2="SourceAlpha" operator="in" result="effect1_backgroundBlur_33794_5355"/>
<feBlend mode="normal" in="SourceGraphic" in2="effect1_backgroundBlur_33794_5355" result="shape"/>
</filter>
<filter id="filter4_b_33794_5355" x="-20.8816" y="2.39967" width="105.948" height="88.9507" filterUnits="userSpaceOnUse" color-interpolation-filters="sRGB">
<feFlood flood-opacity="0" result="BackgroundImageFix"/>
<feGaussianBlur in="BackgroundImageFix" stdDeviation="15.5189"/>
<feComposite in2="SourceAlpha" operator="in" result="effect1_backgroundBlur_33794_5355"/>
<feBlend mode="normal" in="SourceGraphic" in2="effect1_backgroundBlur_33794_5355" result="shape"/>
</filter>
<linearGradient id="paint0_linear_33794_5355" x1="63.2885" y1="16.571" x2="51.8357" y2="42.4971" gradientUnits="userSpaceOnUse">
<stop stop-color="#FFD88B"/>
<stop offset="1" stop-color="#FFA900"/>
</linearGradient>
<linearGradient id="paint1_linear_33794_5355" x1="19.6094" y1="23.75" x2="61.9531" y2="53.9062" gradientUnits="userSpaceOnUse">
<stop offset="0.416176" stop-color="white" stop-opacity="0.7"/>
<stop offset="1" stop-color="white" stop-opacity="0"/>
</linearGradient>
<linearGradient id="paint2_linear_33794_5355" x1="5.58559" y1="26.9785" x2="26.9563" y2="42.3496" gradientUnits="userSpaceOnUse">
<stop stop-color="white"/>
<stop offset="1" stop-color="white" stop-opacity="0"/>
</linearGradient>
<linearGradient id="paint3_linear_33794_5355" x1="17.1047" y1="38.1464" x2="48.2292" y2="60.3125" gradientUnits="userSpaceOnUse">
<stop offset="0.416176" stop-color="white" stop-opacity="0.7"/>
<stop offset="1" stop-color="white" stop-opacity="0"/>
</linearGradient>
<linearGradient id="paint4_linear_33794_5355" x1="6.79662" y1="40.5194" x2="22.505" y2="51.8179" gradientUnits="userSpaceOnUse">
<stop stop-color="white"/>
<stop offset="1" stop-color="white" stop-opacity="0"/>
</linearGradient>
<clipPath id="clip0_33794_5355">
<rect width="80" height="80" rx="40" fill="white"/>
</clipPath>
</defs>
</svg>
