<svg width="34" height="34" viewBox="0 0 34 34" fill="none" xmlns="http://www.w3.org/2000/svg">
<mask id="mask0_33794_3787" style="mask-type:luminance" maskUnits="userSpaceOnUse" x="1" y="1" width="32" height="32">
<path d="M1.4165 1.41667H32.5832V32.5833H1.4165V1.41667Z" fill="white"/>
</mask>
<g mask="url(#mask0_33794_3787)">
<path d="M8.6416 23.4757C9.57106 23.7768 10.5628 23.9394 11.5925 23.9394C16.8762 23.9394 21.1596 19.6561 21.1596 14.3724C21.1596 13.3123 20.9872 12.2925 20.6689 11.3395" stroke="#EA580C" stroke-width="1.15" stroke-miterlimit="10" stroke-linecap="round" stroke-linejoin="round"/>
<path d="M9.15757 5.11786C5.05312 6.19488 2.02539 9.93001 2.02539 14.3724C2.02539 17.6833 3.70736 20.6015 6.26345 22.319" stroke="#EA580C" stroke-width="1.15" stroke-miterlimit="10" stroke-linecap="round" stroke-linejoin="round"/>
<path d="M11.6295 4.80528C11.6172 4.80524 11.605 4.80524 11.5928 4.80524" stroke="#EA580C" stroke-width="1.15" stroke-miterlimit="10" stroke-linecap="round" stroke-linejoin="round"/>
<path d="M17.9626 7.23422C16.8527 6.24309 15.5103 5.50696 14.0273 5.11787" stroke="#EA580C" stroke-width="1.15" stroke-miterlimit="10" stroke-linecap="round" stroke-linejoin="round"/>
<path d="M6.16455 31.9746V24.537C6.16455 22.4789 6.56393 20.4714 7.35144 18.57C7.96893 17.0794 8.80124 15.7113 9.83321 14.4886C10.2946 13.9421 11.1227 13.9027 11.6284 14.4084C12.0739 14.8539 12.109 15.5685 11.7017 16.0493C9.69363 18.4203 8.59945 21.3946 8.59945 24.537V29.5397" stroke="#EA580C" stroke-width="1.15" stroke-miterlimit="10" stroke-linecap="round" stroke-linejoin="round"/>
<path d="M10.5013 17.7139C10.5012 17.7194 10.5015 17.7249 10.5013 17.7305C11.0267 16.9637 12.1582 16.9637 12.6836 17.7305C12.6579 16.8013 13.5733 16.1362 14.449 16.4478C13.8821 15.7112 14.2318 14.635 15.1234 14.3723C14.2318 14.1097 13.8821 13.0335 14.449 12.2969C13.5733 12.6085 12.6579 11.9433 12.6836 11.0142C12.1582 11.781 11.0267 11.781 10.5013 11.0142C10.527 11.9433 9.61158 12.6085 8.73587 12.2969C9.30283 13.0335 8.95312 14.1097 8.06152 14.3723C8.62678 14.5389 8.97376 15.0324 9.00791 15.559" stroke="#EA580C" stroke-width="1.15" stroke-miterlimit="10" stroke-linecap="round" stroke-linejoin="round"/>
<path d="M27.4551 5.78921L27.484 5.78282C28.6938 5.51571 29.7291 4.7388 30.3237 3.65186" stroke="#EA580C" stroke-width="1.15" stroke-miterlimit="10" stroke-linecap="round" stroke-linejoin="round"/>
<path d="M30.5962 3.40388L31.6431 2.357" stroke="#EA580C" stroke-width="1.15" stroke-miterlimit="10" stroke-linecap="round" stroke-linejoin="round"/>
<path d="M29.8784 2.02539C29.8784 3.183 30.8168 4.12141 31.9744 4.12141" stroke="#EA580C" stroke-width="1.15" stroke-miterlimit="10" stroke-linecap="round" stroke-linejoin="round"/>
<path d="M20.123 8.73502L20.1517 8.72869C21.3507 8.46395 22.3767 7.69398 22.966 6.61678" stroke="#EA580C" stroke-width="1.15" stroke-miterlimit="10" stroke-linecap="round" stroke-linejoin="round"/>
<path d="M23.2363 6.37106L24.2738 5.33355" stroke="#EA580C" stroke-width="1.15" stroke-miterlimit="10" stroke-linecap="round" stroke-linejoin="round"/>
<path d="M22.5254 5.00491C22.5254 6.15211 23.4554 7.08212 24.6026 7.08212" stroke="#EA580C" stroke-width="1.15" stroke-miterlimit="10" stroke-linecap="round" stroke-linejoin="round"/>
<path d="M24.9653 12.6261L24.994 12.6198C26.1929 12.355 27.219 11.5851 27.8083 10.5079" stroke="#EA580C" stroke-width="1.15" stroke-miterlimit="10" stroke-linecap="round" stroke-linejoin="round"/>
<path d="M28.0786 10.2621L29.1161 9.22463" stroke="#EA580C" stroke-width="1.15" stroke-miterlimit="10" stroke-linecap="round" stroke-linejoin="round"/>
<path d="M27.3672 8.89598C27.3672 10.0432 28.2972 10.9732 29.4444 10.9732" stroke="#EA580C" stroke-width="1.15" stroke-miterlimit="10" stroke-linecap="round" stroke-linejoin="round"/>
<path d="M11.5923 8.79589V7.38523" stroke="#EA580C" stroke-width="1.15" stroke-miterlimit="10" stroke-linecap="round" stroke-linejoin="round"/>
<path d="M11.5923 19.9488V21.3594" stroke="#EA580C" stroke-width="1.15" stroke-miterlimit="10" stroke-linecap="round" stroke-linejoin="round"/>
<path d="M6.01613 14.3723H4.60547" stroke="#EA580C" stroke-width="1.15" stroke-miterlimit="10" stroke-linecap="round" stroke-linejoin="round"/>
<path d="M17.1689 14.3724H18.5796" stroke="#EA580C" stroke-width="1.15" stroke-miterlimit="10" stroke-linecap="round" stroke-linejoin="round"/>
<path d="M7.64937 10.4292L6.65186 9.43167" stroke="#EA580C" stroke-width="1.15" stroke-miterlimit="10" stroke-linecap="round" stroke-linejoin="round"/>
<path d="M15.5356 18.3155L16.5332 19.313" stroke="#EA580C" stroke-width="1.15" stroke-miterlimit="10" stroke-linecap="round" stroke-linejoin="round"/>
<path d="M15.5356 10.4292L16.5332 9.43168" stroke="#EA580C" stroke-width="1.15" stroke-miterlimit="10" stroke-linecap="round" stroke-linejoin="round"/>
</g>
</svg>
