<svg width="80" height="80" viewBox="0 0 80 80" fill="none" xmlns="http://www.w3.org/2000/svg">
<path d="M69.8437 42.3294C69.8437 47.8601 65.3519 52.3438 59.8091 52.3438H23.4985C16.1303 52.3438 10.1562 46.3827 10.1562 39.0264C10.1562 31.6723 16.1303 25.7091 23.4985 25.7091C24.1593 25.7091 24.8088 25.7597 25.4457 25.8519C28.4588 19.8795 34.6554 15.7812 41.8137 15.7812C50.4753 15.7812 57.7315 21.7838 59.6379 29.8482C59.8281 30.6534 59.9655 31.4782 60.0444 32.3185V32.3207C65.4759 32.4444 69.8437 36.8774 69.8437 42.3294Z" fill="#BAC7CB" fill-opacity="0.4"/>
<g filter="url(#filter0_b_33794_5283)">
<path d="M69.8437 42.3294C69.8437 47.8601 65.3519 52.3438 59.8091 52.3438H23.4985C16.1303 52.3438 10.1562 46.3827 10.1562 39.0264C10.1562 31.6723 16.1303 25.7091 23.4985 25.7091C24.1593 25.7091 24.8088 25.7597 25.4457 25.8519C28.4588 19.8795 34.6554 15.7812 41.8137 15.7812C50.4753 15.7812 57.7315 21.7838 59.6379 29.8482C59.8281 30.6534 59.9655 31.4782 60.0444 32.3185V32.3207C65.4759 32.4444 69.8437 36.8774 69.8437 42.3294Z" fill="url(#paint0_linear_33794_5283)"/>
</g>
<g filter="url(#filter1_b_33794_5283)">
<path fill-rule="evenodd" clip-rule="evenodd" d="M25.6234 26.1933L25.401 26.1611C24.7779 26.071 24.1433 26.0216 23.4985 26.0216C16.3023 26.0216 10.4687 31.8454 10.4687 39.0264C10.4687 46.2095 16.3023 52.0312 23.4985 52.0312H59.8091C65.1799 52.0312 69.5312 47.6869 69.5312 42.3294C69.5312 37.0483 65.3001 32.753 60.0372 32.6331L59.7319 32.6261V32.3333C59.6541 31.5126 59.5196 30.7069 59.3337 29.9201C57.4601 21.9938 50.3275 16.0937 41.8137 16.0937C34.7777 16.0937 28.6866 20.1217 25.7247 25.9926L25.6234 26.1933ZM60.0444 32.3185V32.3207C65.4759 32.4444 69.8437 36.8774 69.8437 42.3294C69.8437 47.8601 65.3519 52.3438 59.8091 52.3438H23.4985C16.1303 52.3438 10.1562 46.3827 10.1562 39.0264C10.1562 31.6723 16.1303 25.7091 23.4985 25.7091C24.1593 25.7091 24.8088 25.7597 25.4457 25.8519C28.4588 19.8795 34.6554 15.7812 41.8137 15.7812C50.4753 15.7812 57.7315 21.7838 59.6379 29.8482C59.8281 30.6534 59.9655 31.4782 60.0444 32.3185Z" fill="url(#paint1_linear_33794_5283)"/>
</g>
<path d="M69.8437 42.3294C69.8437 47.8601 65.3519 52.3438 59.8091 52.3438H23.4985C16.1303 52.3438 10.1562 46.3827 10.1562 39.0264C10.1562 31.6723 16.1303 25.7091 23.4985 25.7091C24.1593 25.7091 24.8088 25.7597 25.4457 25.8519C28.4588 19.8795 34.6554 15.7812 41.8137 15.7812C50.4753 15.7812 57.7315 21.7838 59.6379 29.8482C59.8281 30.6534 59.9655 31.4782 60.0444 32.3185V32.3207C65.4759 32.4444 69.8437 36.8774 69.8437 42.3294Z"/>
<path d="M36.1202 55.463C35.1425 56.0639 34.4841 57.1854 34.4841 58.4709C34.4841 58.5168 34.4847 58.5625 34.4865 58.6078C34.5665 60.7913 37.6739 60.7913 37.754 58.6078C37.7558 58.5625 37.7563 58.5168 37.7563 58.4709C37.7566 57.1854 37.098 56.0639 36.1202 55.463Z" fill="#00A3FF"/>
<path d="M43.4198 51.1839C42.442 51.7848 41.7837 52.9064 41.7837 54.1918C41.7837 54.2378 41.7843 54.2834 41.7861 54.3287C41.8661 56.5123 44.9735 56.5123 45.0535 54.3287C45.0553 54.2834 45.0559 54.2378 45.0559 54.1918C45.0562 52.9064 44.3976 51.7848 43.4198 51.1839Z" fill="#00A3FF"/>
<path d="M24.416 49.6737C23.2126 50.3694 22.4021 51.6681 22.4021 53.1564C22.4021 53.2096 22.4032 53.2625 22.4054 53.3153C22.5035 55.8433 26.328 55.8433 26.4265 53.3153C26.4283 53.2625 26.4294 53.2096 26.4294 53.1564C26.4294 51.6681 25.6193 50.3694 24.416 49.6737Z" fill="#00A3FF"/>
<path d="M53.3623 52.4425C52.1589 53.1382 51.3486 54.4369 51.3486 55.9252C51.3486 55.9784 51.3497 56.0313 51.3516 56.0841C51.4501 58.6121 55.2746 58.6121 55.373 56.0841C55.3752 56.0313 55.376 55.9784 55.376 55.9252C55.3763 54.4369 54.5661 53.1382 53.3623 52.4425Z" fill="#00A3FF"/>
<defs>
<filter id="filter0_b_33794_5283" x="-20.8816" y="-15.2566" width="121.763" height="98.6382" filterUnits="userSpaceOnUse" color-interpolation-filters="sRGB">
<feFlood flood-opacity="0" result="BackgroundImageFix"/>
<feGaussianBlur in="BackgroundImageFix" stdDeviation="15.5189"/>
<feComposite in2="SourceAlpha" operator="in" result="effect1_backgroundBlur_33794_5283"/>
<feBlend mode="normal" in="SourceGraphic" in2="effect1_backgroundBlur_33794_5283" result="shape"/>
</filter>
<filter id="filter1_b_33794_5283" x="-20.8816" y="-15.2566" width="121.763" height="98.6382" filterUnits="userSpaceOnUse" color-interpolation-filters="sRGB">
<feFlood flood-opacity="0" result="BackgroundImageFix"/>
<feGaussianBlur in="BackgroundImageFix" stdDeviation="15.5189"/>
<feComposite in2="SourceAlpha" operator="in" result="effect1_backgroundBlur_33794_5283"/>
<feBlend mode="normal" in="SourceGraphic" in2="effect1_backgroundBlur_33794_5283" result="shape"/>
</filter>
<linearGradient id="paint0_linear_33794_5283" x1="19.6094" y1="22.1875" x2="61.9531" y2="52.3437" gradientUnits="userSpaceOnUse">
<stop offset="0.416176" stop-color="white" stop-opacity="0.7"/>
<stop offset="1" stop-color="white" stop-opacity="0"/>
</linearGradient>
<linearGradient id="paint1_linear_33794_5283" x1="5.58559" y1="25.416" x2="26.9563" y2="40.7871" gradientUnits="userSpaceOnUse">
<stop stop-color="white"/>
<stop offset="1" stop-color="white" stop-opacity="0"/>
</linearGradient>
</defs>
</svg>
