<svg width="80" height="80" viewBox="0 0 80 80" fill="none" xmlns="http://www.w3.org/2000/svg">
<mask id="mask0_33794_5224" style="mask-type:luminance" maskUnits="userSpaceOnUse" x="24" y="24" width="32" height="32">
<path d="M24.4166 24.4167H55.5833V55.5833H24.4166V24.4167Z" fill="white"/>
</mask>
<g mask="url(#mask0_33794_5224)">
<path d="M31.6416 46.4757C32.5711 46.7768 33.5628 46.9394 34.5925 46.9394C39.8762 46.9394 44.1596 42.6561 44.1596 37.3724C44.1596 36.3123 43.9872 35.2925 43.6689 34.3395" stroke="#65A30D" stroke-width="1.15" stroke-miterlimit="10" stroke-linecap="round" stroke-linejoin="round"/>
<path d="M32.1576 28.1179C28.0531 29.1949 25.0254 32.93 25.0254 37.3724C25.0254 40.6833 26.7074 43.6015 29.2634 45.319" stroke="#65A30D" stroke-width="1.15" stroke-miterlimit="10" stroke-linecap="round" stroke-linejoin="round"/>
<path d="M34.6292 27.8053C34.617 27.8053 34.6048 27.8053 34.5925 27.8053" stroke="#65A30D" stroke-width="1.15" stroke-miterlimit="10" stroke-linecap="round" stroke-linejoin="round"/>
<path d="M40.9627 30.2342C39.8529 29.2431 38.5104 28.507 37.0275 28.1179" stroke="#65A30D" stroke-width="1.15" stroke-miterlimit="10" stroke-linecap="round" stroke-linejoin="round"/>
<path d="M29.1647 54.9746V47.537C29.1647 45.4789 29.5641 43.4714 30.3516 41.57C30.9691 40.0794 31.8014 38.7113 32.8333 37.4886C33.2947 36.9421 34.1228 36.9027 34.6285 37.4084C35.074 37.8539 35.1091 38.5685 34.7019 39.0493C32.6937 41.4203 31.5996 44.3946 31.5996 47.537V52.5397" stroke="#65A30D" stroke-width="1.15" stroke-miterlimit="10" stroke-linecap="round" stroke-linejoin="round"/>
<path d="M33.5013 40.7139C33.5012 40.7194 33.5015 40.7249 33.5013 40.7305C34.0267 39.9637 35.1582 39.9637 35.6836 40.7305C35.6579 39.8013 36.5733 39.1362 37.449 39.4478C36.8821 38.7112 37.2318 37.635 38.1234 37.3723C37.2318 37.1097 36.8821 36.0335 37.449 35.2969C36.5733 35.6085 35.6579 34.9433 35.6836 34.0142C35.1582 34.781 34.0267 34.781 33.5013 34.0142C33.527 34.9433 32.6116 35.6085 31.7359 35.2969C32.3028 36.0335 31.9531 37.1097 31.0615 37.3723C31.6268 37.5389 31.9738 38.0324 32.0079 38.559" stroke="#65A30D" stroke-width="1.15" stroke-miterlimit="10" stroke-linecap="round" stroke-linejoin="round"/>
<path d="M50.4548 28.7892L50.4837 28.7828C51.6935 28.5157 52.7289 27.7388 53.3234 26.6519" stroke="#65A30D" stroke-width="1.15" stroke-miterlimit="10" stroke-linecap="round" stroke-linejoin="round"/>
<path d="M53.5961 26.4039L54.643 25.357" stroke="#65A30D" stroke-width="1.15" stroke-miterlimit="10" stroke-linecap="round" stroke-linejoin="round"/>
<path d="M52.8787 25.0254C52.8787 26.183 53.8171 27.1214 54.9747 27.1214" stroke="#65A30D" stroke-width="1.15" stroke-miterlimit="10" stroke-linecap="round" stroke-linejoin="round"/>
<path d="M43.1233 31.735L43.152 31.7287C44.3509 31.464 45.377 30.694 45.9662 29.6168" stroke="#65A30D" stroke-width="1.15" stroke-miterlimit="10" stroke-linecap="round" stroke-linejoin="round"/>
<path d="M46.2365 29.3711L47.274 28.3336" stroke="#65A30D" stroke-width="1.15" stroke-miterlimit="10" stroke-linecap="round" stroke-linejoin="round"/>
<path d="M45.5253 28.0049C45.5253 29.1521 46.4553 30.0821 47.6025 30.0821" stroke="#65A30D" stroke-width="1.15" stroke-miterlimit="10" stroke-linecap="round" stroke-linejoin="round"/>
<path d="M47.9653 35.6261L47.994 35.6198C49.1929 35.355 50.219 34.5851 50.8083 33.5079" stroke="#65A30D" stroke-width="1.15" stroke-miterlimit="10" stroke-linecap="round" stroke-linejoin="round"/>
<path d="M51.0785 33.2621L52.116 32.2246" stroke="#65A30D" stroke-width="1.15" stroke-miterlimit="10" stroke-linecap="round" stroke-linejoin="round"/>
<path d="M50.3674 31.896C50.3674 33.0432 51.2974 33.9732 52.4446 33.9732" stroke="#65A30D" stroke-width="1.15" stroke-miterlimit="10" stroke-linecap="round" stroke-linejoin="round"/>
<path d="M34.5925 31.7959V30.3852" stroke="#65A30D" stroke-width="1.15" stroke-miterlimit="10" stroke-linecap="round" stroke-linejoin="round"/>
<path d="M34.5925 42.9488V44.3594" stroke="#65A30D" stroke-width="1.15" stroke-miterlimit="10" stroke-linecap="round" stroke-linejoin="round"/>
<path d="M29.0161 37.3723H27.6055" stroke="#65A30D" stroke-width="1.15" stroke-miterlimit="10" stroke-linecap="round" stroke-linejoin="round"/>
<path d="M40.1689 37.3723H41.5796" stroke="#65A30D" stroke-width="1.15" stroke-miterlimit="10" stroke-linecap="round" stroke-linejoin="round"/>
<path d="M30.6494 33.4292L29.6519 32.4317" stroke="#65A30D" stroke-width="1.15" stroke-miterlimit="10" stroke-linecap="round" stroke-linejoin="round"/>
<path d="M38.5356 41.3155L39.5332 42.313" stroke="#65A30D" stroke-width="1.15" stroke-miterlimit="10" stroke-linecap="round" stroke-linejoin="round"/>
<path d="M38.5356 33.4292L39.5332 32.4317" stroke="#65A30D" stroke-width="1.15" stroke-miterlimit="10" stroke-linecap="round" stroke-linejoin="round"/>
</g>
</svg>
