<svg width="34" height="34" viewBox="0 0 34 34" fill="none" xmlns="http://www.w3.org/2000/svg">
<mask id="mask0_33794_2583" style="mask-type:luminance" maskUnits="userSpaceOnUse" x="1" y="1" width="32" height="32">
<path d="M1.41669 1.41667H32.5834V32.5833H1.41669V1.41667Z" fill="white"/>
</mask>
<g mask="url(#mask0_33794_2583)">
<path d="M8.6416 23.4757C9.57106 23.7768 10.5628 23.9394 11.5925 23.9394C16.8762 23.9394 21.1596 19.6561 21.1596 14.3724C21.1596 13.3123 20.9872 12.2925 20.6689 11.3395" stroke="#FB923C" stroke-width="1.15" stroke-miterlimit="10" stroke-linecap="round" stroke-linejoin="round"/>
<path d="M9.15757 5.11786C5.05312 6.19488 2.02539 9.93001 2.02539 14.3724C2.02539 17.6833 3.70736 20.6015 6.26345 22.319" stroke="#FB923C" stroke-width="1.15" stroke-miterlimit="10" stroke-linecap="round" stroke-linejoin="round"/>
<path d="M11.6292 4.8053C11.617 4.80525 11.6048 4.80525 11.5925 4.80525" stroke="#FB923C" stroke-width="1.15" stroke-miterlimit="10" stroke-linecap="round" stroke-linejoin="round"/>
<path d="M17.9626 7.23422C16.8528 6.2431 15.5104 5.50697 14.0274 5.11787" stroke="#FB923C" stroke-width="1.15" stroke-miterlimit="10" stroke-linecap="round" stroke-linejoin="round"/>
<path d="M6.16473 31.9746V24.537C6.16473 22.4789 6.56412 20.4714 7.35162 18.57C7.96911 17.0794 8.80142 15.7113 9.83339 14.4886C10.2947 13.9421 11.1229 13.9027 11.6286 14.4084C12.0741 14.8539 12.1092 15.5685 11.7019 16.0493C9.69381 18.4203 8.59963 21.3946 8.59963 24.537V29.5397" stroke="#FB923C" stroke-width="1.15" stroke-miterlimit="10" stroke-linecap="round" stroke-linejoin="round"/>
<path d="M10.5013 17.7139C10.5013 17.7194 10.5016 17.7249 10.5014 17.7305C11.0267 16.9637 12.1583 16.9637 12.6836 17.7305C12.6579 16.8013 13.5734 16.1362 14.4491 16.4478C13.8822 15.7112 14.2319 14.635 15.1235 14.3723C14.2319 14.1097 13.8822 13.0335 14.4491 12.2969C13.5734 12.6085 12.6579 11.9433 12.6836 11.0142C12.1583 11.781 11.0267 11.781 10.5014 11.0142C10.5271 11.9433 9.61164 12.6085 8.73593 12.2969C9.30289 13.0335 8.95318 14.1097 8.06158 14.3723C8.62685 14.5389 8.97382 15.0324 9.00797 15.559" stroke="#FB923C" stroke-width="1.15" stroke-miterlimit="10" stroke-linecap="round" stroke-linejoin="round"/>
<path d="M27.4548 5.78922L27.4837 5.78282C28.6935 5.51572 29.7289 4.7388 30.3234 3.65186" stroke="#FB923C" stroke-width="1.15" stroke-miterlimit="10" stroke-linecap="round" stroke-linejoin="round"/>
<path d="M30.5961 3.4039L31.643 2.35702" stroke="#FB923C" stroke-width="1.15" stroke-miterlimit="10" stroke-linecap="round" stroke-linejoin="round"/>
<path d="M29.8787 2.02538C29.8787 3.18299 30.8171 4.1214 31.9747 4.1214" stroke="#FB923C" stroke-width="1.15" stroke-miterlimit="10" stroke-linecap="round" stroke-linejoin="round"/>
<path d="M20.1232 8.73502L20.1519 8.72869C21.3508 8.46395 22.3769 7.69398 22.9662 6.61678" stroke="#FB923C" stroke-width="1.15" stroke-miterlimit="10" stroke-linecap="round" stroke-linejoin="round"/>
<path d="M23.2364 6.37106L24.2739 5.33355" stroke="#FB923C" stroke-width="1.15" stroke-miterlimit="10" stroke-linecap="round" stroke-linejoin="round"/>
<path d="M22.5253 5.00491C22.5253 6.15211 23.4553 7.08212 24.6025 7.08212" stroke="#FB923C" stroke-width="1.15" stroke-miterlimit="10" stroke-linecap="round" stroke-linejoin="round"/>
<path d="M24.9653 12.6261L24.994 12.6198C26.1929 12.355 27.219 11.5851 27.8083 10.5079" stroke="#FB923C" stroke-width="1.15" stroke-miterlimit="10" stroke-linecap="round" stroke-linejoin="round"/>
<path d="M28.0785 10.2621L29.116 9.22464" stroke="#FB923C" stroke-width="1.15" stroke-miterlimit="10" stroke-linecap="round" stroke-linejoin="round"/>
<path d="M27.3674 8.896C27.3674 10.0432 28.2974 10.9732 29.4446 10.9732" stroke="#FB923C" stroke-width="1.15" stroke-miterlimit="10" stroke-linecap="round" stroke-linejoin="round"/>
<path d="M11.5925 8.7959V7.38524" stroke="#FB923C" stroke-width="1.15" stroke-miterlimit="10" stroke-linecap="round" stroke-linejoin="round"/>
<path d="M11.5925 19.9488V21.3594" stroke="#FB923C" stroke-width="1.15" stroke-miterlimit="10" stroke-linecap="round" stroke-linejoin="round"/>
<path d="M6.01606 14.3723H4.60541" stroke="#FB923C" stroke-width="1.15" stroke-miterlimit="10" stroke-linecap="round" stroke-linejoin="round"/>
<path d="M17.1689 14.3723H18.5796" stroke="#FB923C" stroke-width="1.15" stroke-miterlimit="10" stroke-linecap="round" stroke-linejoin="round"/>
<path d="M7.64937 10.4292L6.65186 9.43168" stroke="#FB923C" stroke-width="1.15" stroke-miterlimit="10" stroke-linecap="round" stroke-linejoin="round"/>
<path d="M15.5356 18.3155L16.5332 19.313" stroke="#FB923C" stroke-width="1.15" stroke-miterlimit="10" stroke-linecap="round" stroke-linejoin="round"/>
<path d="M15.5356 10.4292L16.5332 9.43168" stroke="#FB923C" stroke-width="1.15" stroke-miterlimit="10" stroke-linecap="round" stroke-linejoin="round"/>
</g>
</svg>
