<svg width="80" height="80" viewBox="0 0 80 80" fill="none" xmlns="http://www.w3.org/2000/svg">
<path d="M69.8438 32.0313C69.8438 39.5389 63.7576 45.625 56.25 45.625C48.7424 45.625 42.6562 39.5389 42.6562 32.0313C42.6562 24.5236 48.7424 18.4375 56.25 18.4375C63.7576 18.4375 69.8438 24.5236 69.8438 32.0313Z" fill="url(#paint0_linear_33794_5139)"/>
<path d="M69.8437 51.5481C69.8437 57.0789 65.3519 61.5625 59.8091 61.5625H23.4985C16.1303 61.5625 10.1562 55.6014 10.1562 48.2452C10.1562 40.8911 16.1303 34.9279 23.4985 34.9279C24.1593 34.9279 24.8088 34.9785 25.4457 35.0706C28.4588 29.0983 34.6554 25 41.8137 25C50.4753 25 57.7315 31.0026 59.6379 39.0669C59.8281 39.8721 59.9655 40.697 60.0444 41.5373V41.5394C65.4759 41.6632 69.8437 46.0962 69.8437 51.5481Z" fill="#BAC7CB" fill-opacity="0.4"/>
<g filter="url(#filter0_b_33794_5139)">
<path d="M69.8437 51.5481C69.8437 57.0789 65.3519 61.5625 59.8091 61.5625H23.4985C16.1303 61.5625 10.1562 55.6014 10.1562 48.2452C10.1562 40.8911 16.1303 34.9279 23.4985 34.9279C24.1593 34.9279 24.8088 34.9785 25.4457 35.0706C28.4588 29.0983 34.6554 25 41.8137 25C50.4753 25 57.7315 31.0026 59.6379 39.0669C59.8281 39.8721 59.9655 40.697 60.0444 41.5373V41.5394C65.4759 41.6632 69.8437 46.0962 69.8437 51.5481Z" fill="url(#paint1_linear_33794_5139)"/>
</g>
<g filter="url(#filter1_b_33794_5139)">
<path fill-rule="evenodd" clip-rule="evenodd" d="M25.6234 35.4121L25.401 35.3799C24.7779 35.2898 24.1433 35.2404 23.4985 35.2404C16.3023 35.2404 10.4687 41.0642 10.4687 48.2452C10.4687 55.4283 16.3023 61.25 23.4985 61.25H59.8091C65.1799 61.25 69.5312 56.9057 69.5312 51.5481C69.5312 46.267 65.3001 41.9717 60.0372 41.8518L59.7319 41.8449V41.552C59.6541 40.7314 59.5196 39.9256 59.3337 39.1388C57.4601 31.2126 50.3275 25.3125 41.8137 25.3125C34.7777 25.3125 28.6866 29.3404 25.7247 35.2114L25.6234 35.4121ZM60.0444 41.5373V41.5394C65.4759 41.6632 69.8437 46.0962 69.8437 51.5481C69.8437 57.0789 65.3519 61.5625 59.8091 61.5625H23.4985C16.1303 61.5625 10.1562 55.6014 10.1562 48.2452C10.1562 40.8911 16.1303 34.9279 23.4985 34.9279C24.1593 34.9279 24.8088 34.9785 25.4457 35.0706C28.4588 29.0983 34.6554 25 41.8137 25C50.4753 25 57.7315 31.0026 59.6379 39.0669C59.8281 39.8721 59.9655 40.697 60.0444 41.5373Z" fill="url(#paint2_linear_33794_5139)"/>
</g>
<path d="M69.8437 51.5481C69.8437 57.0789 65.3519 61.5625 59.8091 61.5625H23.4985C16.1303 61.5625 10.1562 55.6014 10.1562 48.2452C10.1562 40.8911 16.1303 34.9279 23.4985 34.9279C24.1593 34.9279 24.8088 34.9785 25.4457 35.0706C28.4588 29.0983 34.6554 25 41.8137 25C50.4753 25 57.7315 31.0026 59.6379 39.0669C59.8281 39.8721 59.9655 40.697 60.0444 41.5373V41.5394C65.4759 41.6632 69.8437 46.0962 69.8437 51.5481Z"/>
<defs>
<filter id="filter0_b_33794_5139" x="-20.8816" y="-6.03783" width="121.763" height="98.6382" filterUnits="userSpaceOnUse" color-interpolation-filters="sRGB">
<feFlood flood-opacity="0" result="BackgroundImageFix"/>
<feGaussianBlur in="BackgroundImageFix" stdDeviation="15.5189"/>
<feComposite in2="SourceAlpha" operator="in" result="effect1_backgroundBlur_33794_5139"/>
<feBlend mode="normal" in="SourceGraphic" in2="effect1_backgroundBlur_33794_5139" result="shape"/>
</filter>
<filter id="filter1_b_33794_5139" x="-20.8816" y="-6.03783" width="121.763" height="98.6382" filterUnits="userSpaceOnUse" color-interpolation-filters="sRGB">
<feFlood flood-opacity="0" result="BackgroundImageFix"/>
<feGaussianBlur in="BackgroundImageFix" stdDeviation="15.5189"/>
<feComposite in2="SourceAlpha" operator="in" result="effect1_backgroundBlur_33794_5139"/>
<feBlend mode="normal" in="SourceGraphic" in2="effect1_backgroundBlur_33794_5139" result="shape"/>
</filter>
<linearGradient id="paint0_linear_33794_5139" x1="61.726" y1="19.696" x2="50.2732" y2="45.6221" gradientUnits="userSpaceOnUse">
<stop stop-color="#FFD88B"/>
<stop offset="1" stop-color="#FFA900"/>
</linearGradient>
<linearGradient id="paint1_linear_33794_5139" x1="19.6094" y1="31.4063" x2="61.9531" y2="61.5625" gradientUnits="userSpaceOnUse">
<stop offset="0.416176" stop-color="white" stop-opacity="0.7"/>
<stop offset="1" stop-color="white" stop-opacity="0"/>
</linearGradient>
<linearGradient id="paint2_linear_33794_5139" x1="5.58559" y1="34.6347" x2="26.9563" y2="50.0058" gradientUnits="userSpaceOnUse">
<stop stop-color="white"/>
<stop offset="1" stop-color="white" stop-opacity="0"/>
</linearGradient>
</defs>
</svg>
