<svg width="80" height="80" viewBox="0 0 80 80" fill="none" xmlns="http://www.w3.org/2000/svg">
<path d="M69.8437 34.5169C69.8437 40.0476 65.3519 44.5312 59.8091 44.5312H23.4985C16.1303 44.5312 10.1562 38.5702 10.1562 31.2139C10.1562 23.8598 16.1303 17.8966 23.4985 17.8966C24.1593 17.8966 24.8088 17.9472 25.4457 18.0394C28.4588 12.067 34.6554 7.96875 41.8137 7.96875C50.4753 7.96875 57.7315 13.9713 59.6379 22.0357C59.8281 22.8409 59.9655 23.6657 60.0444 24.506V24.5082C65.4759 24.6319 69.8437 29.0649 69.8437 34.5169Z" fill="#BAC7CB" fill-opacity="0.4"/>
<g filter="url(#filter0_b_33794_5430)">
<path d="M69.8437 34.5169C69.8437 40.0476 65.3519 44.5312 59.8091 44.5312H23.4985C16.1303 44.5312 10.1562 38.5702 10.1562 31.2139C10.1562 23.8598 16.1303 17.8966 23.4985 17.8966C24.1593 17.8966 24.8088 17.9472 25.4457 18.0394C28.4588 12.067 34.6554 7.96875 41.8137 7.96875C50.4753 7.96875 57.7315 13.9713 59.6379 22.0357C59.8281 22.8409 59.9655 23.6657 60.0444 24.506V24.5082C65.4759 24.6319 69.8437 29.0649 69.8437 34.5169Z" fill="url(#paint0_linear_33794_5430)"/>
</g>
<g filter="url(#filter1_b_33794_5430)">
<path fill-rule="evenodd" clip-rule="evenodd" d="M25.6234 18.3808L25.401 18.3486C24.7779 18.2585 24.1433 18.2091 23.4985 18.2091C16.3023 18.2091 10.4688 24.0329 10.4688 31.2139C10.4688 38.397 16.3023 44.2188 23.4985 44.2188H59.8091C65.1799 44.2188 69.5312 39.8744 69.5312 34.5169C69.5312 29.2358 65.3001 24.9405 60.0372 24.8206L59.7319 24.8136V24.5208C59.6541 23.7001 59.5196 22.8944 59.3338 22.1076C57.4601 14.1813 50.3275 8.28125 41.8137 8.28125C34.7777 8.28125 28.6866 12.3092 25.7247 18.1801L25.6234 18.3808ZM60.0444 24.506V24.5082C65.4759 24.6319 69.8437 29.0649 69.8437 34.5169C69.8437 40.0476 65.3519 44.5312 59.8091 44.5312H23.4985C16.1303 44.5312 10.1562 38.5702 10.1562 31.2139C10.1562 23.8598 16.1303 17.8966 23.4985 17.8966C24.1593 17.8966 24.8088 17.9472 25.4457 18.0394C28.4588 12.067 34.6554 7.96875 41.8137 7.96875C50.4753 7.96875 57.7315 13.9713 59.6379 22.0357C59.8281 22.8409 59.9655 23.6657 60.0444 24.506Z" fill="url(#paint1_linear_33794_5430)"/>
</g>
<path d="M69.8437 34.5169C69.8437 40.0476 65.3519 44.5312 59.8091 44.5312H23.4985C16.1303 44.5312 10.1562 38.5702 10.1562 31.2139C10.1562 23.8598 16.1303 17.8966 23.4985 17.8966C24.1593 17.8966 24.8088 17.9472 25.4457 18.0394C28.4588 12.067 34.6554 7.96875 41.8137 7.96875C50.4753 7.96875 57.7315 13.9713 59.6379 22.0357C59.8281 22.8409 59.9655 23.6657 60.0444 24.506V24.5082C65.4759 24.6319 69.8437 29.0649 69.8437 34.5169Z"/>
<g filter="url(#filter2_f_33794_5430)">
<path d="M50.1562 41.875C50.1562 49.8141 42.9159 56.25 33.9844 56.25C25.0529 56.25 17.8125 49.8141 17.8125 41.875C17.8125 33.9359 25.0529 27.5 33.9844 27.5C42.9159 27.5 50.1562 33.9359 50.1562 41.875Z" fill="#BAC7CB" fill-opacity="0.2"/>
</g>
<path d="M54.0291 43.5765C54.0291 47.6418 50.7275 50.9375 46.6532 50.9375H19.9634C14.5474 50.9375 10.1562 46.5559 10.1562 41.1487C10.1562 35.7431 14.5474 31.3599 19.9634 31.3599C20.4491 31.3599 20.9265 31.3971 21.3946 31.4648C23.6094 27.0749 28.1642 24.0625 33.4258 24.0625C39.7925 24.0625 45.1261 28.4746 46.5274 34.4023C46.6672 34.9941 46.7681 35.6004 46.8261 36.2181V36.2197C50.8186 36.3106 54.0291 39.5691 54.0291 43.5765Z" fill="#BAC7CB"/>
<g filter="url(#filter3_b_33794_5430)">
<path d="M54.0291 43.5765C54.0291 47.6418 50.7275 50.9375 46.6532 50.9375H19.9634C14.5474 50.9375 10.1562 46.5559 10.1562 41.1487C10.1562 35.7431 14.5474 31.3599 19.9634 31.3599C20.4491 31.3599 20.9265 31.3971 21.3946 31.4648C23.6094 27.0749 28.1642 24.0625 33.4258 24.0625C39.7925 24.0625 45.1261 28.4746 46.5274 34.4023C46.6672 34.9941 46.7681 35.6004 46.8261 36.2181V36.2197C50.8186 36.3106 54.0291 39.5691 54.0291 43.5765Z" fill="url(#paint2_linear_33794_5430)"/>
</g>
<g filter="url(#filter4_b_33794_5430)">
<path fill-rule="evenodd" clip-rule="evenodd" d="M21.5724 31.8063L21.3499 31.7741C20.8955 31.7084 20.4331 31.6724 19.9634 31.6724C14.7195 31.6724 10.4688 35.9162 10.4688 41.1487C10.4688 46.3827 14.7194 50.625 19.9634 50.625H46.6532C50.5554 50.625 53.7166 47.4687 53.7166 43.5765C53.7166 39.74 50.6427 36.6192 46.819 36.5321L46.5136 36.5251V36.2328C46.4568 35.6349 46.3587 35.0477 46.2232 34.4742C44.8547 28.6847 39.6447 24.375 33.4258 24.375C28.2865 24.375 23.8372 27.3171 21.6736 31.6056L21.5724 31.8063ZM46.8261 36.2181V36.2197C50.8186 36.3106 54.0291 39.5691 54.0291 43.5765C54.0291 47.6418 50.7274 50.9375 46.6532 50.9375H19.9634C14.5474 50.9375 10.1562 46.5559 10.1562 41.1487C10.1562 35.7431 14.5474 31.3599 19.9634 31.3599C20.4491 31.3599 20.9265 31.3971 21.3946 31.4648C23.6094 27.0749 28.1642 24.0625 33.4258 24.0625C39.7925 24.0625 45.1261 28.4746 46.5274 34.4023C46.6672 34.9941 46.7681 35.6004 46.8261 36.2181Z" fill="url(#paint3_linear_33794_5430)"/>
</g>
<path d="M54.0291 43.5765C54.0291 47.6418 50.7275 50.9375 46.6532 50.9375H19.9634C14.5474 50.9375 10.1562 46.5559 10.1562 41.1487C10.1562 35.7431 14.5474 31.3599 19.9634 31.3599C20.4491 31.3599 20.9265 31.3971 21.3946 31.4648C23.6094 27.0749 28.1642 24.0625 33.4258 24.0625C39.7925 24.0625 45.1261 28.4746 46.5274 34.4023C46.6672 34.9941 46.7681 35.6004 46.8261 36.2181V36.2197C50.8186 36.3106 54.0291 39.5691 54.0291 43.5765Z"/>
<path d="M40.0569 55C38.0619 56.155 36.7188 58.3108 36.7188 60.7815C36.7188 60.8699 36.72 60.9576 36.7236 61.0447C36.8869 65.2418 43.227 65.2418 43.3903 61.0447C43.3939 60.9576 43.3951 60.8699 43.3951 60.7815C43.3958 58.3108 42.0519 56.155 40.0569 55Z" fill="#00A3FF"/>
<path d="M27.2451 45.7812C25.2501 46.9362 23.9062 49.092 23.9062 51.5628C23.9062 51.6511 23.9081 51.7388 23.9117 51.8266C24.0744 56.0231 30.4151 56.0231 30.5784 51.8266C30.5814 51.7388 30.5833 51.6511 30.5833 51.5628C30.5833 49.092 29.2401 46.9362 27.2451 45.7812Z" fill="#00A3FF"/>
<path d="M54.6365 48.75C52.6415 49.905 51.2983 52.0608 51.2983 54.5315C51.2983 54.6199 51.3002 54.7076 51.3032 54.7953C51.4665 58.9918 57.8066 58.9918 57.9699 54.7953C57.9735 54.7076 57.9747 54.6199 57.9747 54.5315C57.9753 52.0608 56.6321 49.905 54.6365 48.75Z" fill="#00A3FF"/>
<defs>
<filter id="filter0_b_33794_5430" x="-20.8816" y="-23.0691" width="121.763" height="98.6382" filterUnits="userSpaceOnUse" color-interpolation-filters="sRGB">
<feFlood flood-opacity="0" result="BackgroundImageFix"/>
<feGaussianBlur in="BackgroundImageFix" stdDeviation="15.5189"/>
<feComposite in2="SourceAlpha" operator="in" result="effect1_backgroundBlur_33794_5430"/>
<feBlend mode="normal" in="SourceGraphic" in2="effect1_backgroundBlur_33794_5430" result="shape"/>
</filter>
<filter id="filter1_b_33794_5430" x="-20.8816" y="-23.0691" width="121.763" height="98.6382" filterUnits="userSpaceOnUse" color-interpolation-filters="sRGB">
<feFlood flood-opacity="0" result="BackgroundImageFix"/>
<feGaussianBlur in="BackgroundImageFix" stdDeviation="15.5189"/>
<feComposite in2="SourceAlpha" operator="in" result="effect1_backgroundBlur_33794_5430"/>
<feBlend mode="normal" in="SourceGraphic" in2="effect1_backgroundBlur_33794_5430" result="shape"/>
</filter>
<filter id="filter2_f_33794_5430" x="2.91434" y="12.6018" width="62.1401" height="58.5463" filterUnits="userSpaceOnUse" color-interpolation-filters="sRGB">
<feFlood flood-opacity="0" result="BackgroundImageFix"/>
<feBlend mode="normal" in="SourceGraphic" in2="BackgroundImageFix" result="shape"/>
<feGaussianBlur stdDeviation="7.44908" result="effect1_foregroundBlur_33794_5430"/>
</filter>
<filter id="filter3_b_33794_5430" x="-20.8816" y="-6.97533" width="105.948" height="88.9507" filterUnits="userSpaceOnUse" color-interpolation-filters="sRGB">
<feFlood flood-opacity="0" result="BackgroundImageFix"/>
<feGaussianBlur in="BackgroundImageFix" stdDeviation="15.5189"/>
<feComposite in2="SourceAlpha" operator="in" result="effect1_backgroundBlur_33794_5430"/>
<feBlend mode="normal" in="SourceGraphic" in2="effect1_backgroundBlur_33794_5430" result="shape"/>
</filter>
<filter id="filter4_b_33794_5430" x="-20.8816" y="-6.97533" width="105.948" height="88.9507" filterUnits="userSpaceOnUse" color-interpolation-filters="sRGB">
<feFlood flood-opacity="0" result="BackgroundImageFix"/>
<feGaussianBlur in="BackgroundImageFix" stdDeviation="15.5189"/>
<feComposite in2="SourceAlpha" operator="in" result="effect1_backgroundBlur_33794_5430"/>
<feBlend mode="normal" in="SourceGraphic" in2="effect1_backgroundBlur_33794_5430" result="shape"/>
</filter>
<linearGradient id="paint0_linear_33794_5430" x1="19.6094" y1="14.375" x2="61.9531" y2="44.5313" gradientUnits="userSpaceOnUse">
<stop offset="0.416176" stop-color="white" stop-opacity="0.7"/>
<stop offset="1" stop-color="white" stop-opacity="0"/>
</linearGradient>
<linearGradient id="paint1_linear_33794_5430" x1="5.58559" y1="17.6035" x2="26.9563" y2="32.9746" gradientUnits="userSpaceOnUse">
<stop stop-color="white"/>
<stop offset="1" stop-color="white" stop-opacity="0"/>
</linearGradient>
<linearGradient id="paint2_linear_33794_5430" x1="17.1047" y1="28.7714" x2="48.2292" y2="50.9375" gradientUnits="userSpaceOnUse">
<stop offset="0.416176" stop-color="white" stop-opacity="0.7"/>
<stop offset="1" stop-color="white" stop-opacity="0"/>
</linearGradient>
<linearGradient id="paint3_linear_33794_5430" x1="6.79662" y1="31.1444" x2="22.505" y2="42.4429" gradientUnits="userSpaceOnUse">
<stop stop-color="white"/>
<stop offset="1" stop-color="white" stop-opacity="0"/>
</linearGradient>
</defs>
</svg>
