<svg width="32" height="32" viewBox="0 0 32 32" fill="none" xmlns="http://www.w3.org/2000/svg">
<path d="M16 7.25C7.65 7.25 0.850006 14.6 0.850006 23.65C0.850006 24.25 1.35001 24.8 2.00001 24.8H30C30.6 24.8 31.15 24.3 31.15 23.65C31.15 14.6 24.35 7.25 16 7.25ZM15.5 22.5L16 20.95L16.5 22.5H15.5ZM18.85 22.5L17.5 18.3C17.3 17.65 16.7 17.2 16 17.2C15.3 17.2 14.7 17.65 14.5 18.3L13.15 22.5H3.15001C3.70001 15.25 9.25 9.5 16 9.5C22.75 9.5 28.3 15.25 28.85 22.5H18.85Z" fill="#4338CA"/>
<path d="M16 12.45C15.4 12.45 14.85 12.95 14.85 13.6V14.85C14.85 15.45 15.35 16 16 16C16.6 16 17.15 15.5 17.15 14.85V13.6C17.15 12.95 16.6 12.45 16 12.45Z" fill="#4338CA"/>
<path d="M23.2 16.15L22.4 16.95C21.95 17.4 21.95 18.1 22.4 18.55C22.6 18.75 22.9 18.85 23.2 18.85C23.5 18.85 23.8 18.75 24 18.5L24.8 17.7C25.25 17.25 25.25 16.55 24.8 16.1C24.35 15.65 23.65 15.7 23.2 16.15Z" fill="#4338CA"/>
<path d="M8.85001 16.15C8.45001 15.7 7.70001 15.65 7.25001 16.05C6.80001 16.45 6.75001 17.2 7.15001 17.65L7.90001 18.45C8.10001 18.7 8.45001 18.8 8.75001 18.8C9.00001 18.8 9.30001 18.7 9.50001 18.5C9.95001 18.1 10 17.35 9.60001 16.9L8.85001 16.15Z" fill="#4338CA"/>
</svg>
